<?xml version="1.0" encoding="UTF-8" standalone="no"?>
<!DOCTYPE svg PUBLIC "-//W3C//DTD SVG 1.1//EN"
 "http://www.w3.org/Graphics/SVG/1.1/DTD/svg11.dtd">
<!-- Generated by graphviz version 2.38.0 (20140413.2041)
 -->
<!-- Title: Frontend Pages: 1 -->
<svg width="944pt" height="563pt"
 viewBox="0.00 0.00 944.00 563.00" xmlns="http://www.w3.org/2000/svg" xmlns:xlink="http://www.w3.org/1999/xlink">
<g id="graph0" class="graph" transform="scale(1 1) rotate(0) translate(4 559)">
<title>Frontend</title>
<polygon fill="white" stroke="none" points="-4,4 -4,-559 940,-559 940,4 -4,4"/>
<text text-anchor="middle" x="468" y="-20.4" font-family="monospace" font-size="12.00">Connect Frontend Overview</text>
<text text-anchor="middle" x="468" y="-7.4" font-family="monospace" font-size="12.00">updated 2017&#45;02&#45;21</text>
<g id="clust1" class="cluster"><title>clusterJs</title>
<polygon fill="none" stroke="black" points="236,-244 236,-331 563,-331 563,-244 236,-244"/>
<text text-anchor="middle" x="399.5" y="-317.4" font-family="monospace" font-size="12.00">Script</text>
<text text-anchor="middle" x="399.5" y="-304.4" font-family="monospace" font-size="12.00">src/js</text>
</g>
<g id="clust2" class="cluster"><title>clusterViews</title>
<polygon fill="none" stroke="black" points="8,-382 8,-547 928,-547 928,-382 8,-382"/>
<text text-anchor="middle" x="468" y="-533.4" font-family="monospace" font-size="12.00">Views</text>
<text text-anchor="middle" x="468" y="-520.4" font-family="monospace" font-size="12.00">src/views</text>
</g>
<g id="clust3" class="cluster"><title>clusterCss</title>
<polygon fill="none" stroke="black" points="571,-244 571,-318 647,-318 647,-244 571,-244"/>
<text text-anchor="middle" x="609" y="-304.4" font-family="monospace" font-size="12.00">CSS</text>
</g>
<g id="clust4" class="cluster"><title>clusterWorkingfiles</title>
<polygon fill="none" stroke="black" points="562,-42 562,-224 666,-224 666,-42 562,-42"/>
<text text-anchor="middle" x="614" y="-210.4" font-family="monospace" font-size="12.00">LESS</text>
<text text-anchor="middle" x="614" y="-197.4" font-family="monospace" font-size="12.00">src/less</text>
</g>
<!-- API -->
<g id="node1" class="node"><title>API</title>
<polygon fill="none" stroke="black" points="244,-252.5 244,-288.5 298,-288.5 298,-252.5 244,-252.5"/>
<text text-anchor="middle" x="271" y="-268" font-family="monospace" font-size="10.00">api.js</text>
</g>
<!-- Backend -->
<g id="node18" class="node"><title>Backend</title>
<polygon fill="none" stroke="black" points="314.86,-169.062 272,-181.5 229.14,-169.062 229.18,-148.938 314.82,-148.938 314.86,-169.062"/>
<text text-anchor="middle" x="272" y="-161" font-family="monospace" font-size="10.00">BACKEND</text>
</g>
<!-- API&#45;&gt;Backend -->
<g id="edge17" class="edge"><title>API&#45;&gt;Backend</title>
<path fill="none" stroke="black" d="M271.165,-252.161C271.322,-235.725 271.559,-210.778 271.741,-191.694"/>
<polygon fill="black" stroke="black" points="275.242,-191.549 271.838,-181.516 268.243,-191.482 275.242,-191.549"/>
</g>
<!-- APIDev -->
<g id="node2" class="node"><title>APIDev</title>
<polygon fill="none" stroke="black" points="316.5,-252.5 316.5,-288.5 393.5,-288.5 393.5,-252.5 316.5,-252.5"/>
<text text-anchor="middle" x="355" y="-268" font-family="monospace" font-size="10.00">api&#45;dev.js</text>
</g>
<!-- PerViewScript -->
<g id="node3" class="node"><title>PerViewScript</title>
<polygon fill="none" stroke="black" points="411.5,-252.5 411.5,-288.5 554.5,-288.5 554.5,-252.5 411.5,-252.5"/>
<text text-anchor="middle" x="483" y="-268" font-family="monospace" font-size="10.00">View Specific Scripts</text>
</g>
<!-- BasePage -->
<g id="node4" class="node"><title>BasePage</title>
<polygon fill="none" stroke="black" points="447.5,-390.5 447.5,-428.5 518.5,-428.5 518.5,-390.5 447.5,-390.5"/>
<text text-anchor="middle" x="483" y="-416.5" font-family="monospace" font-size="10.00">base</text>
<polyline fill="none" stroke="black" points="447.5,-409.5 518.5,-409.5 "/>
<text text-anchor="start" x="455.5" y="-397.5" font-family="monospace" font-size="10.00">base.jade</text>
</g>
<!-- BasePage&#45;&gt;API -->
<g id="edge13" class="edge"><title>BasePage&#45;&gt;API</title>
<path fill="none" stroke="black" d="M447.374,-399.52C409.378,-388.505 349.124,-366.755 308,-331 297.529,-321.896 289.044,-309.093 282.853,-297.694"/>
<polygon fill="black" stroke="black" points="285.859,-295.882 278.2,-288.562 279.622,-299.061 285.859,-295.882"/>
</g>
<!-- BasePage&#45;&gt;APIDev -->
<g id="edge14" class="edge"><title>BasePage&#45;&gt;APIDev</title>
<path fill="none" stroke="black" stroke-dasharray="5,2" d="M462.938,-390.351C446.342,-375.04 422.429,-352.276 403,-331 393.113,-320.173 382.821,-307.611 374.315,-296.827"/>
<polygon fill="black" stroke="black" points="376.828,-294.358 367.917,-288.627 371.309,-298.664 376.828,-294.358"/>
<text text-anchor="middle" x="452" y="-358.5" font-family="Times,serif" font-size="10.00">dev</text>
<text text-anchor="middle" x="452" y="-347.5" font-family="Times,serif" font-size="10.00">mode</text>
</g>
<!-- BasePage&#45;&gt;PerViewScript -->
<g id="edge16" class="edge"><title>BasePage&#45;&gt;PerViewScript</title>
<path fill="none" stroke="black" d="M483,-382.048C483,-358.15 483,-323.117 483,-298.924"/>
<polygon fill="black" stroke="black" points="486.5,-298.901 483,-288.901 479.5,-298.901 486.5,-298.901"/>
</g>
<!-- AllCSS -->
<g id="node14" class="node"><title>AllCSS</title>
<polygon fill="none" stroke="black" points="579.5,-252.5 579.5,-288.5 638.5,-288.5 638.5,-252.5 579.5,-252.5"/>
<text text-anchor="middle" x="609" y="-268" font-family="monospace" font-size="10.00">all.css</text>
</g>
<!-- BasePage&#45;&gt;AllCSS -->
<g id="edge12" class="edge"><title>BasePage&#45;&gt;AllCSS</title>
<path fill="none" stroke="black" d="M505.255,-390.239C522.922,-375.225 547.764,-352.926 567,-331 568.487,-329.305 569.97,-327.558 571.444,-325.774"/>
<polygon fill="black" stroke="black" points="574.331,-327.766 577.818,-317.761 568.853,-323.408 574.331,-327.766"/>
<text text-anchor="middle" x="573.5" y="-364" font-family="Times,serif" font-size="10.00">one css</text>
<text text-anchor="middle" x="573.5" y="-353" font-family="Times,serif" font-size="10.00">to rule</text>
<text text-anchor="middle" x="573.5" y="-342" font-family="Times,serif" font-size="10.00">them all</text>
</g>
<!-- JQUERY -->
<g id="node17" class="node"><title>JQUERY</title>
<polygon fill="none" stroke="black" points="656.5,-251.5 656.5,-289.5 751.5,-289.5 751.5,-251.5 656.5,-251.5"/>
<text text-anchor="middle" x="704" y="-277.5" font-family="monospace" font-size="10.00">jquery.min.js</text>
<polyline fill="none" stroke="black" points="656.5,-270.5 751.5,-270.5 "/>
<text text-anchor="middle" x="704" y="-258.5" font-family="monospace" font-size="10.00">v 1.8</text>
</g>
<!-- BasePage&#45;&gt;JQUERY -->
<g id="edge15" class="edge"><title>BasePage&#45;&gt;JQUERY</title>
<path fill="none" stroke="black" d="M518.737,-399.536C540.79,-393.308 569.294,-383.978 593,-372 621.176,-357.763 627.46,-352.034 651,-331 662.344,-320.864 673.722,-308.457 683.011,-297.6"/>
<polygon fill="black" stroke="black" points="685.925,-299.573 689.673,-289.663 680.563,-295.073 685.925,-299.573"/>
</g>
<!-- HomePage -->
<g id="node5" class="node"><title>HomePage</title>
<polygon fill="none" stroke="black" points="842.5,-466.5 842.5,-504.5 919.5,-504.5 919.5,-466.5 842.5,-466.5"/>
<text text-anchor="middle" x="881" y="-492.5" font-family="monospace" font-size="10.00">/</text>
<polyline fill="none" stroke="black" points="842.5,-485.5 919.5,-485.5 "/>
<text text-anchor="start" x="850.5" y="-473.5" font-family="monospace" font-size="10.00">index.jade</text>
</g>
<!-- HomePage&#45;&gt;BasePage -->
<g id="edge1" class="edge"><title>HomePage&#45;&gt;BasePage</title>
<path fill="none" stroke="black" d="M842.498,-468.574C839.645,-467.632 836.792,-466.76 834,-466 726.785,-436.799 596.687,-421.215 528.979,-414.542"/>
<polygon fill="black" stroke="black" points="528.951,-411.023 518.661,-413.546 528.279,-417.99 528.951,-411.023"/>
</g>
<!-- SearchPage -->
<g id="node6" class="node"><title>SearchPage</title>
<polygon fill="none" stroke="black" points="741.5,-466.5 741.5,-504.5 824.5,-504.5 824.5,-466.5 741.5,-466.5"/>
<text text-anchor="middle" x="783" y="-492.5" font-family="monospace" font-size="10.00">/search</text>
<polyline fill="none" stroke="black" points="741.5,-485.5 824.5,-485.5 "/>
<text text-anchor="start" x="749.5" y="-473.5" font-family="monospace" font-size="10.00">search.jade</text>
</g>
<!-- SearchPage&#45;&gt;BasePage -->
<g id="edge2" class="edge"><title>SearchPage&#45;&gt;BasePage</title>
<path fill="none" stroke="black" d="M741.4,-468.627C738.571,-467.696 735.752,-466.811 733,-466 662.577,-445.259 578.991,-428.184 528.521,-418.675"/>
<polygon fill="black" stroke="black" points="529.049,-415.213 518.577,-416.819 527.765,-422.094 529.049,-415.213"/>
</g>
<!-- SubmitPage -->
<g id="node7" class="node"><title>SubmitPage</title>
<polygon fill="none" stroke="black" points="640.5,-466.5 640.5,-504.5 723.5,-504.5 723.5,-466.5 640.5,-466.5"/>
<text text-anchor="middle" x="682" y="-492.5" font-family="monospace" font-size="10.00">/submit</text>
<polyline fill="none" stroke="black" points="640.5,-485.5 723.5,-485.5 "/>
<text text-anchor="start" x="648.5" y="-473.5" font-family="monospace" font-size="10.00">submit.jade</text>
</g>
<!-- SubmitPage&#45;&gt;BasePage -->
<g id="edge3" class="edge"><title>SubmitPage&#45;&gt;BasePage</title>
<path fill="none" stroke="black" d="M640.283,-468.987C607.504,-456.798 561.921,-439.847 528.262,-427.331"/>
<polygon fill="black" stroke="black" points="529.26,-423.968 518.667,-423.763 526.82,-430.529 529.26,-423.968"/>
</g>
<!-- AboutPage -->
<g id="node8" class="node"><title>AboutPage</title>
<polygon fill="none" stroke="black" points="545.5,-466.5 545.5,-504.5 622.5,-504.5 622.5,-466.5 545.5,-466.5"/>
<text text-anchor="middle" x="584" y="-492.5" font-family="monospace" font-size="10.00">/about</text>
<polyline fill="none" stroke="black" points="545.5,-485.5 622.5,-485.5 "/>
<text text-anchor="start" x="553.5" y="-473.5" font-family="monospace" font-size="10.00">about.jade</text>
</g>
<!-- AboutPage&#45;&gt;BasePage -->
<g id="edge4" class="edge"><title>AboutPage&#45;&gt;BasePage</title>
<path fill="none" stroke="black" d="M559.293,-466.398C546.331,-456.901 530.272,-445.135 516.235,-434.85"/>
<polygon fill="black" stroke="black" points="517.938,-431.759 507.802,-428.672 513.8,-437.406 517.938,-431.759"/>
</g>
<!-- ProfilePage -->
<g id="node9" class="node"><title>ProfilePage</title>
<polygon fill="none" stroke="black" points="438.5,-466.5 438.5,-504.5 527.5,-504.5 527.5,-466.5 438.5,-466.5"/>
<text text-anchor="middle" x="483" y="-492.5" font-family="monospace" font-size="10.00">/profile</text>
<polyline fill="none" stroke="black" points="438.5,-485.5 527.5,-485.5 "/>
<text text-anchor="start" x="446.5" y="-473.5" font-family="monospace" font-size="10.00">profile.jade</text>
</g>
<!-- ProfilePage&#45;&gt;BasePage -->
<g id="edge5" class="edge"><title>ProfilePage&#45;&gt;BasePage</title>
<path fill="none" stroke="black" d="M483,-466.208C483,-457.964 483,-448.038 483,-438.862"/>
<polygon fill="black" stroke="black" points="486.5,-438.582 483,-428.582 479.5,-438.582 486.5,-438.582"/>
</g>
<!-- CollectionPage -->
<g id="node10" class="node"><title>CollectionPage</title>
<polygon fill="none" stroke="black" points="313.5,-466.5 313.5,-504.5 420.5,-504.5 420.5,-466.5 313.5,-466.5"/>
<text text-anchor="middle" x="367" y="-492.5" font-family="monospace" font-size="10.00">/collection</text>
<polyline fill="none" stroke="black" points="313.5,-485.5 420.5,-485.5 "/>
<text text-anchor="start" x="321.5" y="-473.5" font-family="monospace" font-size="10.00">collection.jade</text>
</g>
<!-- CollectionPage&#45;&gt;BasePage -->
<g id="edge6" class="edge"><title>CollectionPage&#45;&gt;BasePage</title>
<path fill="none" stroke="black" d="M395.377,-466.398C410.544,-456.722 429.405,-444.69 445.739,-434.27"/>
<polygon fill="black" stroke="black" points="447.966,-437.001 454.514,-428.672 444.201,-431.1 447.966,-437.001"/>
</g>
<!-- ExplorePage -->
<g id="node11" class="node"><title>ExplorePage</title>
<polygon fill="none" stroke="black" points="206.5,-466.5 206.5,-504.5 295.5,-504.5 295.5,-466.5 206.5,-466.5"/>
<text text-anchor="middle" x="251" y="-492.5" font-family="monospace" font-size="10.00">/explore</text>
<polyline fill="none" stroke="black" points="206.5,-485.5 295.5,-485.5 "/>
<text text-anchor="start" x="214.5" y="-473.5" font-family="monospace" font-size="10.00">explore.jade</text>
</g>
<!-- ExplorePage&#45;&gt;BasePage -->
<g id="edge7" class="edge"><title>ExplorePage&#45;&gt;BasePage</title>
<path fill="none" stroke="black" d="M295.757,-469.06C298.882,-468.014 301.986,-466.986 305,-466 349.995,-451.281 401.674,-435.266 437.714,-424.24"/>
<polygon fill="black" stroke="black" points="438.905,-427.536 447.447,-421.267 436.86,-420.841 438.905,-427.536"/>
</g>
<!-- LoginPage -->
<g id="node12" class="node"><title>LoginPage</title>
<polygon fill="none" stroke="black" points="111.5,-466.5 111.5,-504.5 188.5,-504.5 188.5,-466.5 111.5,-466.5"/>
<text text-anchor="middle" x="150" y="-492.5" font-family="monospace" font-size="10.00">/login</text>
<polyline fill="none" stroke="black" points="111.5,-485.5 188.5,-485.5 "/>
<text text-anchor="start" x="119.5" y="-473.5" font-family="monospace" font-size="10.00">login.jade</text>
</g>
<!-- LoginPage&#45;&gt;BasePage -->
<g id="edge8" class="edge"><title>LoginPage&#45;&gt;BasePage</title>
<path fill="none" stroke="black" d="M188.574,-468.964C191.74,-467.894 194.91,-466.889 198,-466 281.002,-442.123 380.563,-425.347 437.338,-416.861"/>
<polygon fill="black" stroke="black" points="438.045,-420.295 447.427,-415.374 437.024,-413.37 438.045,-420.295"/>
</g>
<!-- AdminPage -->
<g id="node13" class="node"><title>AdminPage</title>
<polygon fill="none" stroke="black" points="16.5,-466.5 16.5,-504.5 93.5,-504.5 93.5,-466.5 16.5,-466.5"/>
<text text-anchor="middle" x="55" y="-492.5" font-family="monospace" font-size="10.00">/admin</text>
<polyline fill="none" stroke="black" points="16.5,-485.5 93.5,-485.5 "/>
<text text-anchor="start" x="24.5" y="-473.5" font-family="monospace" font-size="10.00">admin.jade</text>
</g>
<!-- AdminPage&#45;&gt;BasePage -->
<g id="edge9" class="edge"><title>AdminPage&#45;&gt;BasePage</title>
<path fill="none" stroke="black" d="M93.7515,-468.451C96.5198,-467.551 99.2881,-466.721 102,-466 220.527,-434.492 364.863,-419.639 437.13,-413.753"/>
<polygon fill="black" stroke="black" points="437.566,-417.229 447.258,-412.948 437.012,-410.251 437.566,-417.229"/>
</g>
<!-- AllLess -->
<g id="node16" class="node"><title>AllLess</title>
<polygon fill="none" stroke="black" points="576.5,-145.5 576.5,-181.5 641.5,-181.5 641.5,-145.5 576.5,-145.5"/>
<text text-anchor="middle" x="609" y="-161" font-family="monospace" font-size="10.00">all.less</text>
</g>
<!-- AllCSS&#45;&gt;AllLess -->
<g id="edge11" class="edge"><title>AllCSS&#45;&gt;AllLess</title>
<path fill="none" stroke="black" d="M609,-252.161C609,-246.937 609,-240.852 609,-234.369"/>
<polygon fill="black" stroke="black" points="612.5,-233.92 609,-223.92 605.5,-233.92 612.5,-233.92"/>
</g>
<!-- Workingfiles -->
<g id="node15" class="node"><title>Workingfiles</title>
<polygon fill="none" stroke="black" points="569.5,-50.5 569.5,-86.5 658.5,-86.5 658.5,-50.5 569.5,-50.5"/>
<text text-anchor="middle" x="614" y="-66" font-family="monospace" font-size="10.00">workingfiles</text>
</g>
<!-- AllLess&#45;&gt;Workingfiles -->
<g id="edge10" class="edge"><title>AllLess&#45;&gt;Workingfiles</title>
<path fill="none" stroke="black" d="M609.917,-145.442C610.646,-131.894 611.679,-112.68 612.523,-96.9689"/>
<polygon fill="black" stroke="black" points="616.03,-96.938 613.072,-86.7644 609.04,-96.5621 616.03,-96.938"/>
<text text-anchor="middle" x="635.5" y="-119" font-family="Times,serif" font-size="10.00">includes</text>
<text text-anchor="middle" x="635.5" y="-108" font-family="Times,serif" font-size="10.00"> &#160;everything</text>
</g>
<!-- Backend&#45;&gt;API -->
<g id="edge18" class="edge"><title>Backend&#45;&gt;API</title>
<path fill="none" stroke="black" d="M271.838,-181.516C271.682,-197.84 271.445,-222.769 271.263,-241.929"/>
<polygon fill="black" stroke="black" points="267.761,-242.128 271.165,-252.161 274.76,-242.195 267.761,-242.128"/>
</g>
</g>
</svg>
