<?xml version="1.0" encoding="UTF-8" standalone="no"?>
<!DOCTYPE svg PUBLIC "-//W3C//DTD SVG 1.1//EN"
 "http://www.w3.org/Graphics/SVG/1.1/DTD/svg11.dtd">
<!-- Generated by graphviz version 2.38.0 (20140413.2041)
 -->
<!-- Title: G Pages: 1 -->
<svg width="1183pt" height="419pt"
 viewBox="0.00 0.00 1183.00 419.00" xmlns="http://www.w3.org/2000/svg" xmlns:xlink="http://www.w3.org/1999/xlink">
<g id="graph0" class="graph" transform="scale(1 1) rotate(0) translate(4 415)">
<title>G</title>
<polygon fill="white" stroke="none" points="-4,4 -4,-415 1179,-415 1179,4 -4,4"/>
<text text-anchor="middle" x="587.5" y="-20.4" font-family="monospace" font-size="12.00">Connect Backend Overview</text>
<text text-anchor="middle" x="587.5" y="-7.4" font-family="monospace" font-size="12.00">updated 2017&#45;09&#45;04</text>
<g id="clust1" class="cluster"><title>clusterPippo</title>
<polygon fill="none" stroke="black" points="8,-135.5 8,-209.5 84,-209.5 84,-135.5 8,-135.5"/>
<text text-anchor="middle" x="46" y="-195.9" font-family="monospace" font-size="12.00">Pippo</text>
</g>
<g id="clust2" class="cluster"><title>clusterEvents</title>
<polygon fill="none" stroke="black" points="815,-42 815,-402 1167,-402 1167,-42 815,-42"/>
<text text-anchor="middle" x="991" y="-388.4" font-family="monospace" font-size="12.00">Events</text>
</g>
<g id="clust3" class="cluster"><title>clusterModules</title>
<polygon fill="none" stroke="black" points="588,-129 588,-327 807,-327 807,-129 588,-129"/>
<text text-anchor="middle" x="697.5" y="-313.4" font-family="monospace" font-size="12.00">Modules</text>
</g>
<g id="clust4" class="cluster"><title>clusterEndpoints</title>
<polygon fill="none" stroke="black" points="88,-241 88,-403 580,-403 580,-241 88,-241"/>
<text text-anchor="middle" x="334" y="-389.4" font-family="monospace" font-size="12.00">Routes</text>
</g>
<!-- PippoStuff -->
<g id="node1" class="node"><title>PippoStuff</title>
<polygon fill="none" stroke="black" points="16.5,-144 16.5,-180 75.5,-180 75.5,-144 16.5,-144"/>
<text text-anchor="middle" x="46" y="-159.5" font-family="monospace" font-size="10.00">Package</text>
</g>
<!-- Connect -->
<g id="node2" class="node"><title>Connect</title>
<polygon fill="none" stroke="black" points="13.5,-335.5 13.5,-373.5 78.5,-373.5 78.5,-335.5 13.5,-335.5"/>
<text text-anchor="middle" x="46" y="-361.5" font-family="monospace" font-size="10.00">Connect</text>
<polyline fill="none" stroke="black" points="13.5,-354.5 78.5,-354.5 "/>
<text text-anchor="start" x="21.5" y="-342.5" font-family="monospace" font-size="10.00">+ main()</text>
</g>
<!-- Connect&#45;&gt;PippoStuff -->
<g id="edge1" class="edge"><title>Connect&#45;&gt;PippoStuff</title>
<path fill="none" stroke="black" d="M46,-335.234C46,-306.533 46,-249.977 46,-209.5"/>
</g>
<!-- BackendRouter -->
<g id="node17" class="node"><title>BackendRouter</title>
<polygon fill="none" stroke="black" points="218.5,-249.5 218.5,-285.5 313.5,-285.5 313.5,-249.5 218.5,-249.5"/>
<text text-anchor="start" x="226.5" y="-265" font-family="monospace" font-size="10.00">BackendRouter</text>
</g>
<!-- Connect&#45;&gt;BackendRouter -->
<g id="edge22" class="edge"><title>Connect&#45;&gt;BackendRouter</title>
<path fill="none" stroke="black" d="M78.6517,-337.34C80.4529,-336.531 82.2441,-335.746 84,-335 85.403,-334.404 86.8133,-333.808 88.2303,-333.213"/>
<text text-anchor="middle" x="68.6316" y="-326.944" font-family="Times,serif" font-size="10.00">register</text>
<text text-anchor="middle" x="68.6316" y="-315.944" font-family="Times,serif" font-size="10.00">routes</text>
</g>
<!-- TrustLevel -->
<g id="node3" class="node"><title>TrustLevel</title>
<polygon fill="none" stroke="black" points="93.5,-123.5 93.5,-200.5 194.5,-200.5 194.5,-123.5 93.5,-123.5"/>
<text text-anchor="start" x="113.5" y="-188.5" font-family="monospace" font-size="10.00">TrustLevel</text>
<polyline fill="none" stroke="black" points="93.5,-181.5 194.5,-181.5 "/>
<text text-anchor="start" x="101.5" y="-170.5" font-family="monospace" text-decoration="underline" font-size="10.00">+ ADMIN</text>
<text text-anchor="start" x="101.5" y="-160.5" font-family="monospace" text-decoration="underline" font-size="10.00">+ VERIFIED</text>
<text text-anchor="start" x="101.5" y="-150.5" font-family="monospace" text-decoration="underline" font-size="10.00">+ USER</text>
<text text-anchor="start" x="101.5" y="-140.5" font-family="monospace" text-decoration="underline" font-size="10.00">+ REGISTERED</text>
<text text-anchor="start" x="101.5" y="-130.5" font-family="monospace" text-decoration="underline" font-size="10.00">+ UNREGISTERED</text>
</g>
<!-- GraphClass -->
<g id="node4" class="node"><title>GraphClass</title>
<polygon fill="none" stroke="black" points="212.5,-132 212.5,-192 337.5,-192 337.5,-132 212.5,-132"/>
<text text-anchor="middle" x="275" y="-180" font-family="monospace" font-size="10.00">Graph</text>
<polyline fill="none" stroke="black" points="212.5,-173 337.5,-173 "/>
<text text-anchor="start" x="220.5" y="-161" font-family="monospace" font-size="10.00">+ Graph.User</text>
<text text-anchor="start" x="220.5" y="-150" font-family="monospace" font-size="10.00">+ Graph.Entry</text>
<text text-anchor="start" x="220.5" y="-139" font-family="monospace" font-size="10.00">+ Graph.Collection</text>
</g>
<!-- DatabaseException -->
<g id="node5" class="node"><title>DatabaseException</title>
<polygon fill="none" stroke="black" points="585.5,-50.5 585.5,-86.5 704.5,-86.5 704.5,-50.5 585.5,-50.5"/>
<text text-anchor="middle" x="645" y="-66" font-family="monospace" font-size="10.00">DatabaseException</text>
</g>
<!-- RequestException -->
<g id="node6" class="node"><title>RequestException</title>
<polygon fill="none" stroke="black" points="355.5,-144 355.5,-180 468.5,-180 468.5,-144 355.5,-144"/>
<text text-anchor="middle" x="412" y="-159.5" font-family="monospace" font-size="10.00">RequestException</text>
</g>
<!-- UserEvent -->
<g id="node7" class="node"><title>UserEvent</title>
<polygon fill="none" stroke="black" points="940.5,-50.5 940.5,-86.5 1011.5,-86.5 1011.5,-50.5 940.5,-50.5"/>
<text text-anchor="middle" x="976" y="-66" font-family="monospace" font-size="10.00">UserEvent</text>
</g>
<!-- DeleteAccountEvent -->
<g id="node8" class="node"><title>DeleteAccountEvent</title>
<polygon fill="none" stroke="black" points="957.5,-336.5 957.5,-372.5 1082.5,-372.5 1082.5,-336.5 957.5,-336.5"/>
<text text-anchor="middle" x="1020" y="-352" font-family="monospace" font-size="10.00">DeleteAccountEvent</text>
</g>
<!-- DeleteAccountEvent&#45;&gt;UserEvent -->
<g id="edge2" class="edge"><title>DeleteAccountEvent&#45;&gt;UserEvent</title>
<path fill="none" stroke="black" d="M993.033,-336.427C990.243,-333.607 987.782,-330.46 986,-327 965.696,-287.58 970.84,-154.82 974.196,-96.903"/>
<polygon fill="none" stroke="black" points="977.704,-96.8761 974.815,-86.6827 970.716,-96.4527 977.704,-96.8761"/>
</g>
<!-- LeaveCollectionEvent -->
<g id="node12" class="node"><title>LeaveCollectionEvent</title>
<polygon fill="none" stroke="black" points="995.5,-249.5 995.5,-285.5 1132.5,-285.5 1132.5,-249.5 995.5,-249.5"/>
<text text-anchor="middle" x="1064" y="-265" font-family="monospace" font-size="10.00">LeaveCollectionEvent</text>
</g>
<!-- DeleteAccountEvent&#45;&gt;LeaveCollectionEvent -->
<g id="edge7" class="edge"><title>DeleteAccountEvent&#45;&gt;LeaveCollectionEvent</title>
<path fill="none" stroke="black" d="M1028.9,-336.299C1036.54,-321.552 1047.48,-300.415 1055.11,-285.675"/>
</g>
<!-- DeleteCollectionEvent -->
<g id="node9" class="node"><title>DeleteCollectionEvent</title>
<polygon fill="none" stroke="black" points="1015.5,-144 1015.5,-180 1158.5,-180 1158.5,-144 1015.5,-144"/>
<text text-anchor="middle" x="1087" y="-159.5" font-family="monospace" font-size="10.00">DeleteCollectionEvent</text>
</g>
<!-- DeleteCollectionEvent&#45;&gt;UserEvent -->
<g id="edge3" class="edge"><title>DeleteCollectionEvent&#45;&gt;UserEvent</title>
<path fill="none" stroke="black" d="M1066.12,-143.79C1048.76,-129.476 1023.86,-108.956 1004.64,-93.1077"/>
<polygon fill="none" stroke="black" points="1006.73,-90.2933 996.785,-86.6333 1002.27,-95.6948 1006.73,-90.2933"/>
</g>
<!-- DeleteEntryEvent -->
<g id="node10" class="node"><title>DeleteEntryEvent</title>
<polygon fill="none" stroke="black" points="843.5,-144 843.5,-180 956.5,-180 956.5,-144 843.5,-144"/>
<text text-anchor="middle" x="900" y="-159.5" font-family="monospace" font-size="10.00">DeleteEntryEvent</text>
</g>
<!-- DeleteEntryEvent&#45;&gt;UserEvent -->
<g id="edge4" class="edge"><title>DeleteEntryEvent&#45;&gt;UserEvent</title>
<path fill="none" stroke="black" d="M914.295,-143.79C925.866,-129.859 942.319,-110.051 955.325,-94.391"/>
<polygon fill="none" stroke="black" points="958.072,-96.5622 961.769,-86.6333 952.687,-92.0895 958.072,-96.5622"/>
</g>
<!-- DetachEntryEvent -->
<g id="node11" class="node"><title>DetachEntryEvent</title>
<polygon fill="none" stroke="black" points="833.5,-249.5 833.5,-285.5 946.5,-285.5 946.5,-249.5 833.5,-249.5"/>
<text text-anchor="middle" x="890" y="-265" font-family="monospace" font-size="10.00">DetachEntryEvent</text>
</g>
<!-- DetachEntryEvent&#45;&gt;UserEvent -->
<g id="edge5" class="edge"><title>DetachEntryEvent&#45;&gt;UserEvent</title>
<path fill="none" stroke="black" d="M865.882,-249.364C853.855,-239.292 840.513,-225.422 834,-209.5 819.445,-173.917 812.127,-154.615 834,-123 855.437,-92.0148 897.243,-78.9526 929.967,-73.4582"/>
<polygon fill="none" stroke="black" points="930.861,-76.8637 940.235,-71.9271 929.828,-69.9402 930.861,-76.8637"/>
</g>
<!-- DetachEntryEvent&#45;&gt;DeleteEntryEvent -->
<g id="edge9" class="edge"><title>DetachEntryEvent&#45;&gt;DeleteEntryEvent</title>
<path fill="none" stroke="black" d="M891.651,-249.409C893.504,-230.232 896.492,-199.304 898.346,-180.116"/>
</g>
<!-- LeaveCollectionEvent&#45;&gt;UserEvent -->
<g id="edge6" class="edge"><title>LeaveCollectionEvent&#45;&gt;UserEvent</title>
<path fill="none" stroke="black" d="M1040.95,-249.392C1028.75,-239.141 1014.57,-225.089 1006,-209.5 995.501,-190.4 985.309,-131.776 979.93,-96.7377"/>
<polygon fill="none" stroke="black" points="983.367,-96.0596 978.42,-86.6908 976.445,-97.1 983.367,-96.0596"/>
</g>
<!-- LeaveCollectionEvent&#45;&gt;DeleteCollectionEvent -->
<g id="edge8" class="edge"><title>LeaveCollectionEvent&#45;&gt;DeleteCollectionEvent</title>
<path fill="none" stroke="black" d="M1067.8,-249.409C1072.06,-230.232 1078.93,-199.304 1083.2,-180.116"/>
</g>
<!-- AccountSystem -->
<g id="node13" class="node"><title>AccountSystem</title>
<polygon fill="none" stroke="black" points="596.5,-237.5 596.5,-297.5 721.5,-297.5 721.5,-237.5 596.5,-237.5"/>
<text text-anchor="middle" x="659" y="-285.5" font-family="monospace" font-size="10.00">AccountSystem</text>
<polyline fill="none" stroke="black" points="596.5,-278.5 721.5,-278.5 "/>
<text text-anchor="start" x="604.5" y="-266.5" font-family="monospace" font-size="10.00">+ register()</text>
<text text-anchor="start" x="604.5" y="-255.5" font-family="monospace" font-size="10.00">+ reset_password()</text>
<text text-anchor="start" x="604.5" y="-244.5" font-family="monospace" font-size="10.00">+ delete()</text>
</g>
<!-- Database -->
<g id="node14" class="node"><title>Database</title>
<polygon fill="none" stroke="black" points="606.5,-137.5 606.5,-186.5 683.5,-186.5 683.5,-137.5 606.5,-137.5"/>
<text text-anchor="middle" x="645" y="-174.5" font-family="monospace" font-size="10.00">Database</text>
<polyline fill="none" stroke="black" points="606.5,-167.5 683.5,-167.5 "/>
<text text-anchor="start" x="614.5" y="-155.5" font-family="monospace" font-size="10.00">+ access()</text>
<text text-anchor="start" x="614.5" y="-144.5" font-family="monospace" font-size="10.00">+ query()</text>
</g>
<!-- AccountSystem&#45;&gt;Database -->
<g id="edge11" class="edge"><title>AccountSystem&#45;&gt;Database</title>
<path fill="none" stroke="black" d="M655.063,-237.394C652.895,-221.37 650.24,-201.738 648.201,-186.666"/>
</g>
<!-- Database&#45;&gt;DatabaseException -->
<g id="edge12" class="edge"><title>Database&#45;&gt;DatabaseException</title>
<path fill="none" stroke="black" d="M645,-137.436C645,-121.551 645,-100.957 645,-86.6266"/>
</g>
<!-- MailClient -->
<g id="node15" class="node"><title>MailClient</title>
<polygon fill="none" stroke="black" points="710.5,-143 710.5,-181 799.5,-181 799.5,-143 710.5,-143"/>
<text text-anchor="start" x="724.5" y="-169" font-family="monospace" font-size="10.00">MailClient</text>
<polyline fill="none" stroke="black" points="710.5,-162 799.5,-162 "/>
<text text-anchor="start" x="718.5" y="-151" font-family="monospace" font-style="italic" font-size="10.00">+ sendMail()</text>
</g>
<!-- Mailman -->
<g id="node16" class="node"><title>Mailman</title>
<polygon fill="none" stroke="black" points="739.5,-249.5 739.5,-285.5 798.5,-285.5 798.5,-249.5 739.5,-249.5"/>
<text text-anchor="start" x="747.5" y="-265" font-family="monospace" font-size="10.00">Mailman</text>
</g>
<!-- Mailman&#45;&gt;MailClient -->
<g id="edge10" class="edge"><title>Mailman&#45;&gt;MailClient</title>
<path fill="none" stroke="black" d="M766.688,-249.409C764.549,-233.593 761.328,-209.783 758.809,-191.159"/>
<polygon fill="none" stroke="black" points="762.266,-190.602 757.457,-181.162 755.329,-191.541 762.266,-190.602"/>
</g>
<!-- BackendRouter&#45;&gt;PippoStuff -->
<g id="edge21" class="edge"><title>BackendRouter&#45;&gt;PippoStuff</title>
<path fill="none" stroke="black" d="M149.63,-241.163C126.74,-233.185 103.729,-222.841 84,-209.5"/>
</g>
<!-- BackendRouter&#45;&gt;TrustLevel -->
<g id="edge20" class="edge"><title>BackendRouter&#45;&gt;TrustLevel</title>
<path fill="none" stroke="black" d="M236.422,-241.407C221.962,-229.14 204.262,-214.124 188.236,-200.528"/>
</g>
<!-- BackendRouter&#45;&gt;GraphClass -->
<g id="edge19" class="edge"><title>BackendRouter&#45;&gt;GraphClass</title>
<path fill="none" stroke="black" d="M268.199,-241.214C269.485,-226.428 271.113,-207.698 272.454,-192.274"/>
</g>
<!-- BackendRouter&#45;&gt;RequestException -->
<g id="edge18" class="edge"><title>BackendRouter&#45;&gt;RequestException</title>
<path fill="none" stroke="black" d="M301.687,-241.201C328.457,-222.224 364.384,-196.755 387.855,-180.116"/>
</g>
<!-- BackendRouter&#45;&gt;Database -->
<g id="edge17" class="edge"><title>BackendRouter&#45;&gt;Database</title>
<path fill="none" stroke="black" d="M359.321,-241.423C396.016,-231.528 438.5,-220.028 477,-209.5 514.091,-199.357 555.75,-187.827 588.305,-178.786"/>
</g>
<!-- Account -->
<g id="node18" class="node"><title>Account</title>
<polygon fill="none" stroke="black" points="465.5,-335.5 465.5,-373.5 572.5,-373.5 572.5,-335.5 465.5,-335.5"/>
<text text-anchor="middle" x="519" y="-361.5" font-family="monospace" font-size="10.00">Account</text>
<polyline fill="none" stroke="black" points="465.5,-354.5 572.5,-354.5 "/>
<text text-anchor="start" x="473.5" y="-342.5" font-family="monospace" font-size="10.00">root = /account</text>
</g>
<!-- Account&#45;&gt;BackendRouter -->
<g id="edge13" class="edge"><title>Account&#45;&gt;BackendRouter</title>
<path fill="none" stroke="black" d="M465.345,-335.474C423.629,-321.458 365.88,-302.057 323.272,-287.742"/>
<polygon fill="none" stroke="black" points="324.2,-284.361 313.606,-284.494 321.971,-290.997 324.2,-284.361"/>
</g>
<!-- Collection -->
<g id="node19" class="node"><title>Collection</title>
<polygon fill="none" stroke="black" points="322.5,-335.5 322.5,-373.5 447.5,-373.5 447.5,-335.5 322.5,-335.5"/>
<text text-anchor="middle" x="385" y="-361.5" font-family="monospace" font-size="10.00">Collection</text>
<polyline fill="none" stroke="black" points="322.5,-354.5 447.5,-354.5 "/>
<text text-anchor="start" x="330.5" y="-342.5" font-family="monospace" font-size="10.00">root = /collection</text>
</g>
<!-- Collection&#45;&gt;BackendRouter -->
<g id="edge14" class="edge"><title>Collection&#45;&gt;BackendRouter</title>
<path fill="none" stroke="black" d="M359.763,-335.474C341.815,-322.654 317.557,-305.327 298.212,-291.509"/>
<polygon fill="none" stroke="black" points="300.155,-288.595 289.983,-285.631 296.086,-294.291 300.155,-288.595"/>
</g>
<!-- Entry -->
<g id="node20" class="node"><title>Entry</title>
<polygon fill="none" stroke="black" points="209.5,-335.5 209.5,-373.5 304.5,-373.5 304.5,-335.5 209.5,-335.5"/>
<text text-anchor="middle" x="257" y="-361.5" font-family="monospace" font-size="10.00">Entry</text>
<polyline fill="none" stroke="black" points="209.5,-354.5 304.5,-354.5 "/>
<text text-anchor="start" x="217.5" y="-342.5" font-family="monospace" font-size="10.00">root = /entry</text>
</g>
<!-- Entry&#45;&gt;BackendRouter -->
<g id="edge15" class="edge"><title>Entry&#45;&gt;BackendRouter</title>
<path fill="none" stroke="black" d="M258.909,-335.474C260.126,-323.976 261.727,-308.853 263.1,-295.887"/>
<polygon fill="none" stroke="black" points="266.614,-295.944 264.186,-285.631 259.653,-295.207 266.614,-295.944"/>
</g>
<!-- Admin -->
<g id="node21" class="node"><title>Admin</title>
<polygon fill="none" stroke="black" points="96.5,-335.5 96.5,-373.5 191.5,-373.5 191.5,-335.5 96.5,-335.5"/>
<text text-anchor="middle" x="144" y="-361.5" font-family="monospace" font-size="10.00">Admin</text>
<polyline fill="none" stroke="black" points="96.5,-354.5 191.5,-354.5 "/>
<text text-anchor="start" x="104.5" y="-342.5" font-family="monospace" font-size="10.00">root = /admin</text>
</g>
<!-- Admin&#45;&gt;BackendRouter -->
<g id="edge16" class="edge"><title>Admin&#45;&gt;BackendRouter</title>
<path fill="none" stroke="black" d="M169.873,-335.474C188.274,-322.654 213.143,-305.327 232.976,-291.509"/>
<polygon fill="none" stroke="black" points="235.208,-294.219 241.412,-285.631 231.207,-288.476 235.208,-294.219"/>
</g>
</g>
</svg>
