<?xml version="1.0" encoding="UTF-8" standalone="no"?>
<!DOCTYPE svg PUBLIC "-//W3C//DTD SVG 1.1//EN"
 "http://www.w3.org/Graphics/SVG/1.1/DTD/svg11.dtd">
<!-- Generated by graphviz version 2.38.0 (20140413.2041)
 -->
<!-- Title: G Pages: 1 -->
<svg width="823pt" height="403pt"
 viewBox="0.00 0.00 823.00 403.00" xmlns="http://www.w3.org/2000/svg" xmlns:xlink="http://www.w3.org/1999/xlink">
<g id="graph0" class="graph" transform="scale(1 1) rotate(0) translate(4 399)">
<title>G</title>
<polygon fill="white" stroke="none" points="-4,4 -4,-399 819,-399 819,4 -4,4"/>
<text text-anchor="middle" x="407.5" y="-20.4" font-family="monospace" font-size="12.00">Connect Backend Overview</text>
<text text-anchor="middle" x="407.5" y="-7.4" font-family="monospace" font-size="12.00">updated 2017&#45;01&#45;31</text>
<g id="clust1" class="cluster"><title>clusterPippo</title>
<polygon fill="none" stroke="black" points="8,-119.5 8,-193.5 84,-193.5 84,-119.5 8,-119.5"/>
<text text-anchor="middle" x="46" y="-179.9" font-family="monospace" font-size="12.00">Pippo</text>
</g>
<g id="clust2" class="cluster"><title>clusterModules</title>
<polygon fill="none" stroke="black" points="588,-113 588,-311 807,-311 807,-113 588,-113"/>
<text text-anchor="middle" x="697.5" y="-297.4" font-family="monospace" font-size="12.00">Modules</text>
</g>
<g id="clust3" class="cluster"><title>clusterEndpoints</title>
<polygon fill="none" stroke="black" points="88,-225 88,-387 580,-387 580,-225 88,-225"/>
<text text-anchor="middle" x="334" y="-373.4" font-family="monospace" font-size="12.00">Routes</text>
</g>
<!-- PippoStuff -->
<g id="node1" class="node"><title>PippoStuff</title>
<polygon fill="none" stroke="black" points="16.5,-128 16.5,-164 75.5,-164 75.5,-128 16.5,-128"/>
<text text-anchor="middle" x="46" y="-143.5" font-family="monospace" font-size="10.00">Package</text>
</g>
<!-- Connect -->
<g id="node2" class="node"><title>Connect</title>
<polygon fill="none" stroke="black" points="13.5,-319.5 13.5,-357.5 78.5,-357.5 78.5,-319.5 13.5,-319.5"/>
<text text-anchor="middle" x="46" y="-345.5" font-family="monospace" font-size="10.00">Connect</text>
<polyline fill="none" stroke="black" points="13.5,-338.5 78.5,-338.5 "/>
<text text-anchor="start" x="21.5" y="-326.5" font-family="monospace" font-size="10.00">+ main()</text>
</g>
<!-- Connect&#45;&gt;PippoStuff -->
<g id="edge1" class="edge"><title>Connect&#45;&gt;PippoStuff</title>
<path fill="none" stroke="black" d="M46,-319.234C46,-290.533 46,-233.977 46,-193.5"/>
</g>
<!-- BackendRouter -->
<g id="node11" class="node"><title>BackendRouter</title>
<polygon fill="none" stroke="black" points="218.5,-233.5 218.5,-269.5 313.5,-269.5 313.5,-233.5 218.5,-233.5"/>
<text text-anchor="start" x="226.5" y="-249" font-family="monospace" font-size="10.00">BackendRouter</text>
</g>
<!-- Connect&#45;&gt;BackendRouter -->
<g id="edge14" class="edge"><title>Connect&#45;&gt;BackendRouter</title>
<path fill="none" stroke="black" d="M78.6517,-321.34C80.4529,-320.531 82.2441,-319.746 84,-319 85.403,-318.404 86.8133,-317.808 88.2303,-317.213"/>
<text text-anchor="middle" x="68.6316" y="-310.944" font-family="Times,serif" font-size="10.00">register</text>
<text text-anchor="middle" x="68.6316" y="-299.944" font-family="Times,serif" font-size="10.00">routes</text>
</g>
<!-- TrustLevel -->
<g id="node3" class="node"><title>TrustLevel</title>
<polygon fill="none" stroke="black" points="93.5,-107.5 93.5,-184.5 194.5,-184.5 194.5,-107.5 93.5,-107.5"/>
<text text-anchor="start" x="113.5" y="-172.5" font-family="monospace" font-size="10.00">TrustLevel</text>
<polyline fill="none" stroke="black" points="93.5,-165.5 194.5,-165.5 "/>
<text text-anchor="start" x="101.5" y="-154.5" font-family="monospace" text-decoration="underline" font-size="10.00">+ ADMIN</text>
<text text-anchor="start" x="101.5" y="-144.5" font-family="monospace" text-decoration="underline" font-size="10.00">+ VERIFIED</text>
<text text-anchor="start" x="101.5" y="-134.5" font-family="monospace" text-decoration="underline" font-size="10.00">+ USER</text>
<text text-anchor="start" x="101.5" y="-124.5" font-family="monospace" text-decoration="underline" font-size="10.00">+ REGISTERED</text>
<text text-anchor="start" x="101.5" y="-114.5" font-family="monospace" text-decoration="underline" font-size="10.00">+ UNREGISTERED</text>
</g>
<!-- GraphClass -->
<g id="node4" class="node"><title>GraphClass</title>
<polygon fill="none" stroke="black" points="212.5,-116 212.5,-176 337.5,-176 337.5,-116 212.5,-116"/>
<text text-anchor="middle" x="275" y="-164" font-family="monospace" font-size="10.00">Graph</text>
<polyline fill="none" stroke="black" points="212.5,-157 337.5,-157 "/>
<text text-anchor="start" x="220.5" y="-145" font-family="monospace" font-size="10.00">+ Graph.User</text>
<text text-anchor="start" x="220.5" y="-134" font-family="monospace" font-size="10.00">+ Graph.Entry</text>
<text text-anchor="start" x="220.5" y="-123" font-family="monospace" font-size="10.00">+ Graph.Collection</text>
</g>
<!-- DatabaseException -->
<g id="node5" class="node"><title>DatabaseException</title>
<polygon fill="none" stroke="black" points="585.5,-34.5 585.5,-70.5 704.5,-70.5 704.5,-34.5 585.5,-34.5"/>
<text text-anchor="middle" x="645" y="-50" font-family="monospace" font-size="10.00">DatabaseException</text>
</g>
<!-- RequestException -->
<g id="node6" class="node"><title>RequestException</title>
<polygon fill="none" stroke="black" points="355.5,-128 355.5,-164 468.5,-164 468.5,-128 355.5,-128"/>
<text text-anchor="middle" x="412" y="-143.5" font-family="monospace" font-size="10.00">RequestException</text>
</g>
<!-- AccountSystem -->
<g id="node7" class="node"><title>AccountSystem</title>
<polygon fill="none" stroke="black" points="596.5,-221.5 596.5,-281.5 721.5,-281.5 721.5,-221.5 596.5,-221.5"/>
<text text-anchor="middle" x="659" y="-269.5" font-family="monospace" font-size="10.00">AccountSystem</text>
<polyline fill="none" stroke="black" points="596.5,-262.5 721.5,-262.5 "/>
<text text-anchor="start" x="604.5" y="-250.5" font-family="monospace" font-size="10.00">+ register()</text>
<text text-anchor="start" x="604.5" y="-239.5" font-family="monospace" font-size="10.00">+ reset_password()</text>
<text text-anchor="start" x="604.5" y="-228.5" font-family="monospace" font-size="10.00">+ delete()</text>
</g>
<!-- Database -->
<g id="node8" class="node"><title>Database</title>
<polygon fill="none" stroke="black" points="606.5,-121.5 606.5,-170.5 683.5,-170.5 683.5,-121.5 606.5,-121.5"/>
<text text-anchor="middle" x="645" y="-158.5" font-family="monospace" font-size="10.00">Database</text>
<polyline fill="none" stroke="black" points="606.5,-151.5 683.5,-151.5 "/>
<text text-anchor="start" x="614.5" y="-139.5" font-family="monospace" font-size="10.00">+ access()</text>
<text text-anchor="start" x="614.5" y="-128.5" font-family="monospace" font-size="10.00">+ query()</text>
</g>
<!-- AccountSystem&#45;&gt;Database -->
<g id="edge3" class="edge"><title>AccountSystem&#45;&gt;Database</title>
<path fill="none" stroke="black" d="M655.063,-221.394C652.895,-205.37 650.24,-185.738 648.201,-170.666"/>
</g>
<!-- Database&#45;&gt;DatabaseException -->
<g id="edge4" class="edge"><title>Database&#45;&gt;DatabaseException</title>
<path fill="none" stroke="black" d="M645,-121.436C645,-105.551 645,-84.9574 645,-70.6266"/>
</g>
<!-- MailClient -->
<g id="node9" class="node"><title>MailClient</title>
<polygon fill="none" stroke="black" points="710.5,-127 710.5,-165 799.5,-165 799.5,-127 710.5,-127"/>
<text text-anchor="start" x="724.5" y="-153" font-family="monospace" font-size="10.00">MailClient</text>
<polyline fill="none" stroke="black" points="710.5,-146 799.5,-146 "/>
<text text-anchor="start" x="718.5" y="-135" font-family="monospace" font-style="italic" font-size="10.00">+ sendMail()</text>
</g>
<!-- Mailman -->
<g id="node10" class="node"><title>Mailman</title>
<polygon fill="none" stroke="black" points="739.5,-233.5 739.5,-269.5 798.5,-269.5 798.5,-233.5 739.5,-233.5"/>
<text text-anchor="start" x="747.5" y="-249" font-family="monospace" font-size="10.00">Mailman</text>
</g>
<!-- Mailman&#45;&gt;MailClient -->
<g id="edge2" class="edge"><title>Mailman&#45;&gt;MailClient</title>
<path fill="none" stroke="black" d="M766.688,-233.409C764.549,-217.593 761.328,-193.783 758.809,-175.159"/>
<polygon fill="none" stroke="black" points="762.266,-174.602 757.457,-165.162 755.329,-175.541 762.266,-174.602"/>
</g>
<!-- BackendRouter&#45;&gt;PippoStuff -->
<g id="edge13" class="edge"><title>BackendRouter&#45;&gt;PippoStuff</title>
<path fill="none" stroke="black" d="M149.63,-225.163C126.74,-217.185 103.729,-206.841 84,-193.5"/>
</g>
<!-- BackendRouter&#45;&gt;TrustLevel -->
<g id="edge12" class="edge"><title>BackendRouter&#45;&gt;TrustLevel</title>
<path fill="none" stroke="black" d="M236.422,-225.407C221.962,-213.14 204.262,-198.124 188.236,-184.528"/>
</g>
<!-- BackendRouter&#45;&gt;GraphClass -->
<g id="edge11" class="edge"><title>BackendRouter&#45;&gt;GraphClass</title>
<path fill="none" stroke="black" d="M268.199,-225.214C269.485,-210.428 271.113,-191.698 272.454,-176.274"/>
</g>
<!-- BackendRouter&#45;&gt;RequestException -->
<g id="edge10" class="edge"><title>BackendRouter&#45;&gt;RequestException</title>
<path fill="none" stroke="black" d="M301.687,-225.201C328.457,-206.224 364.384,-180.755 387.855,-164.116"/>
</g>
<!-- BackendRouter&#45;&gt;Database -->
<g id="edge9" class="edge"><title>BackendRouter&#45;&gt;Database</title>
<path fill="none" stroke="black" d="M359.321,-225.423C396.016,-215.528 438.5,-204.028 477,-193.5 514.091,-183.357 555.75,-171.827 588.305,-162.786"/>
</g>
<!-- Account -->
<g id="node12" class="node"><title>Account</title>
<polygon fill="none" stroke="black" points="465.5,-319.5 465.5,-357.5 572.5,-357.5 572.5,-319.5 465.5,-319.5"/>
<text text-anchor="middle" x="519" y="-345.5" font-family="monospace" font-size="10.00">Account</text>
<polyline fill="none" stroke="black" points="465.5,-338.5 572.5,-338.5 "/>
<text text-anchor="start" x="473.5" y="-326.5" font-family="monospace" font-size="10.00">root = /account</text>
</g>
<!-- Account&#45;&gt;BackendRouter -->
<g id="edge5" class="edge"><title>Account&#45;&gt;BackendRouter</title>
<path fill="none" stroke="black" d="M465.345,-319.474C423.629,-305.458 365.88,-286.057 323.272,-271.742"/>
<polygon fill="none" stroke="black" points="324.2,-268.361 313.606,-268.494 321.971,-274.997 324.2,-268.361"/>
</g>
<!-- Collection -->
<g id="node13" class="node"><title>Collection</title>
<polygon fill="none" stroke="black" points="322.5,-319.5 322.5,-357.5 447.5,-357.5 447.5,-319.5 322.5,-319.5"/>
<text text-anchor="middle" x="385" y="-345.5" font-family="monospace" font-size="10.00">Collection</text>
<polyline fill="none" stroke="black" points="322.5,-338.5 447.5,-338.5 "/>
<text text-anchor="start" x="330.5" y="-326.5" font-family="monospace" font-size="10.00">root = /collection</text>
</g>
<!-- Collection&#45;&gt;BackendRouter -->
<g id="edge6" class="edge"><title>Collection&#45;&gt;BackendRouter</title>
<path fill="none" stroke="black" d="M359.763,-319.474C341.815,-306.654 317.557,-289.327 298.212,-275.509"/>
<polygon fill="none" stroke="black" points="300.155,-272.595 289.983,-269.631 296.086,-278.291 300.155,-272.595"/>
</g>
<!-- Entry -->
<g id="node14" class="node"><title>Entry</title>
<polygon fill="none" stroke="black" points="209.5,-319.5 209.5,-357.5 304.5,-357.5 304.5,-319.5 209.5,-319.5"/>
<text text-anchor="middle" x="257" y="-345.5" font-family="monospace" font-size="10.00">Entry</text>
<polyline fill="none" stroke="black" points="209.5,-338.5 304.5,-338.5 "/>
<text text-anchor="start" x="217.5" y="-326.5" font-family="monospace" font-size="10.00">root = /entry</text>
</g>
<!-- Entry&#45;&gt;BackendRouter -->
<g id="edge7" class="edge"><title>Entry&#45;&gt;BackendRouter</title>
<path fill="none" stroke="black" d="M258.909,-319.474C260.126,-307.976 261.727,-292.853 263.1,-279.887"/>
<polygon fill="none" stroke="black" points="266.614,-279.944 264.186,-269.631 259.653,-279.207 266.614,-279.944"/>
</g>
<!-- Admin -->
<g id="node15" class="node"><title>Admin</title>
<polygon fill="none" stroke="black" points="96.5,-319.5 96.5,-357.5 191.5,-357.5 191.5,-319.5 96.5,-319.5"/>
<text text-anchor="middle" x="144" y="-345.5" font-family="monospace" font-size="10.00">Admin</text>
<polyline fill="none" stroke="black" points="96.5,-338.5 191.5,-338.5 "/>
<text text-anchor="start" x="104.5" y="-326.5" font-family="monospace" font-size="10.00">root = /admin</text>
</g>
<!-- Admin&#45;&gt;BackendRouter -->
<g id="edge8" class="edge"><title>Admin&#45;&gt;BackendRouter</title>
<path fill="none" stroke="black" d="M169.873,-319.474C188.274,-306.654 213.143,-289.327 232.976,-275.509"/>
<polygon fill="none" stroke="black" points="235.208,-278.219 241.412,-269.631 231.207,-272.476 235.208,-278.219"/>
</g>
</g>
</svg>
